<svg fill="#00bebe" xmlns="http://www.w3.org/2000/svg" viewBox="0 0 100 100" version="1.1" x="0px" y="0px"><g stroke="none" stroke-width="1" fill="none" fill-rule="evenodd"><g fill="#00bebe"><path d="M24.7879061,81.899822 C19.2025832,78.9481931 16.3117808,75.9255956 15.7892759,75.3498535 C14.2201957,73.6216522 13.8305675,71.1334635 14.7965166,69.0110358 L28.0665753,39.8560233 L24.5192172,32.0621553 C24.2019961,31.3653377 23.5049315,30.9176899 22.7370254,30.9176899 C21.9689237,30.9176899 21.2718591,31.3653377 20.954638,32.0621553 L0.174794521,77.7169667 C-0.147123288,78.4241176 -0.0171819961,79.2539038 0.505518591,79.8298409 C0.786340509,80.1394509 7.25600783,87.0945642 20.7800783,87.7196333 L20.7800783,94.8650358 C20.7800783,95.9416522 21.6562035,96.8147214 22.7370254,96.8147214 C23.8176517,96.8147214 24.6939726,95.9416522 24.6939726,94.8650358 L24.6939726,87.7186585 C28.6978865,87.5330484 32.0890802,86.791973 34.8904501,85.8259038 C31.3043444,84.8650987 27.9063014,83.5476962 24.7879061,81.899822 M81.199002,72.7342138 C81.7217025,72.1584717 81.8516438,71.3284906 81.529726,70.6213396 L69.6755186,44.5768553 L51.7277691,5.14446541 C51.4105479,4.4476478 50.7136791,4 49.9455773,4 C49.1774755,4 48.4806067,4.4476478 48.1631898,5.14446541 L18.3610372,70.6213396 C18.0393151,71.3284906 18.1692564,72.1584717 18.6919569,72.7342138 C19.0373581,73.1149874 26.0837378,80.6887358 40.7393151,83.1024465 C41.4234638,83.2151384 42.1244423,83.3161321 42.8418591,83.4052327 C42.8811937,83.4103019 42.9207241,83.4147862 42.9602544,83.4196604 C43.266908,83.4568994 43.5768885,83.4917987 43.8896086,83.5245535 C43.9512524,83.5309874 44.0128963,83.5374214 44.0745401,83.5436604 C44.4070254,83.5773899 44.7424462,83.6085849 45.0815851,83.6366604 C45.1035029,83.6386101 45.124638,83.6405597 45.1461644,83.6423145 C45.5117221,83.6723396 45.8811937,83.6986604 46.2545793,83.7218616 C46.3154403,83.725566 46.3774755,83.7286855 46.4385323,83.732195 C46.7352055,83.7495472 47.0340313,83.7649497 47.3355969,83.7782075 C47.4473386,83.7828868 47.559863,83.7871761 47.6721918,83.7914654 C47.7768885,83.7953648 47.8833464,83.7977044 47.9886301,83.8012138 L47.9886301,94.8650943 C47.9886301,95.9417107 48.8647554,96.8147799 49.9455773,96.8147799 C51.0262035,96.8147799 51.9025245,95.9417107 51.9025245,94.8650943 L51.9025245,83.8012138 C52.0078082,83.7977044 52.1142661,83.7953648 52.2189628,83.7914654 C52.3312916,83.7871761 52.443816,83.7828868 52.5555577,83.7782075 C52.8571233,83.7649497 53.1561448,83.7495472 53.4526223,83.732 C53.5136791,83.7286855 53.5757143,83.725566 53.6363796,83.7218616 C54.0097652,83.6986604 54.3794325,83.6723396 54.7447945,83.6423145 C54.7663209,83.6405597 54.7872603,83.6386101 54.8087867,83.6368553 C55.1481213,83.6085849 55.4835421,83.5773899 55.8158317,83.5436604 C55.8780626,83.5374214 55.9400978,83.5309874 56.0021331,83.5245535 C56.3148532,83.4917987 56.6248337,83.4568994 56.9314873,83.4194654 C56.9704305,83.4145912 57.0099609,83.4103019 57.0489041,83.4052327 C57.7663209,83.316327 58.4674951,83.2151384 59.1518395,83.1024465 C73.8072211,80.6887358 80.8532094,73.1149874 81.199002,72.7342138 M99.7164384,77.7169472 L78.9362035,32.0621358 C78.6189824,31.3653182 77.9221135,30.9176704 77.1540117,30.9176704 C76.38591,30.9176704 75.6890411,31.3653182 75.37182,32.0621358 L71.8244618,39.8560038 L85.0943249,69.0112113 C86.060274,71.133444 85.6708415,73.6216327 84.1021526,75.349444 C83.5792564,75.9255761 80.6886497,78.9481736 75.1033268,81.8998025 C71.9847358,83.5476767 68.5866928,84.8650792 65.0005871,85.8258843 C67.8019569,86.7919535 71.192955,87.5330289 75.1970646,87.718639 L75.1970646,94.8650164 C75.1970646,95.9418277 76.0733855,96.8147019 77.1540117,96.8147019 C78.2348337,96.8147019 79.1109589,95.9418277 79.1109589,94.8650164 L79.1109589,87.7196138 C92.6350294,87.0945447 99.1046967,80.1394314 99.3857143,79.8298214 C99.9082192,79.2540792 100.038356,78.4240981 99.7164384,77.7169472"></path></g></g></svg>